/* XPM */
static char *result[] = {
/* columns rows colors chars-per-pixel */
"30 30 236 2 ",
"   c #050200",
".  c #0B0200",
"X  c #010B00",
"o  c #0C0C01",
"O  c #090409",
"+  c #130200",
"@  c #1B0200",
"#  c #130A01",
"$  c #1B0C00",
"%  c #17090C",
"&  c #0B1401",
"*  c #071400",
"=  c #131401",
"-  c #1A1A04",
";  c #1A1607",
":  c #140B10",
">  c #0F1410",
",  c #1C1616",
"<  c #230100",
"1  c #220B02",
"2  c #290D00",
"3  c #340B00",
"4  c #3B1D00",
"5  c #341800",
"6  c #210C13",
"7  c #271819",
"8  c #2A1600",
"9  c #16220A",
"0  c #1B2413",
"q  c #262100",
"w  c #3B2300",
"e  c #332705",
"r  c #333A00",
"t  c #3A3A02",
"y  c #2B2D17",
"u  c #252525",
"i  c #422300",
"p  c #482C02",
"a  c #4D3C03",
"s  c #493406",
"d  c #533C00",
"f  c #453C13",
"g  c #444201",
"h  c #4C4501",
"j  c #4C4C00",
"k  c #534301",
"l  c #534C00",
"z  c #584E00",
"x  c #59450B",
"c  c #5C5300",
"v  c #54530C",
"b  c #584E11",
"n  c #565617",
"m  c #484C17",
"M  c #624D03",
"N  c #654100",
"B  c #645401",
"V  c #614A18",
"C  c #544929",
"Z  c #7A7350",
"A  c #7F7460",
"S  c #866B3C",
"D  c #846C43",
"F  c #80704E",
"G  c #817054",
"H  c #8C7E63",
"J  c #B18F0A",
"K  c #B49B00",
"L  c #AF9D18",
"P  c #B59818",
"I  c #AC950E",
"U  c #B9A409",
"Y  c #BEA219",
"T  c #A7A713",
"R  c #9F8E26",
"E  c #B69D3A",
"W  c #AF992F",
"Q  c #B5A734",
"!  c #B3B428",
"~  c #C6A404",
"^  c #C9AA04",
"/  c #D8B709",
"(  c #C8A819",
")  c #CFB81C",
"_  c #D8BB17",
"`  c #EDBE00",
"'  c #F6BC03",
"]  c #EBBD1F",
"[  c #F3BF1A",
"{  c #C8A626",
"}  c #DABF36",
"|  c #D3BC38",
" . c #C9AF30",
".. c #D7C706",
"X. c #D9CD10",
"o. c #ECC200",
"O. c #EACD04",
"+. c #E8C509",
"@. c #F4C301",
"#. c #FDCC02",
"$. c #FFC70C",
"%. c #F2CB0B",
"&. c #FDCB0D",
"*. c #F7C806",
"=. c #EED300",
"-. c #E6D90E",
";. c #FDD003",
":. c #FDD30B",
">. c #F4D60A",
",. c #EDCC13",
"<. c #ECCC1C",
"1. c #E8C719",
"2. c #FDCB12",
"3. c #F6C917",
"4. c #E8D812",
"5. c #FCD212",
"6. c #FBD51C",
"7. c #F5D817",
"8. c #DACA27",
"9. c #F8C928",
"0. c #E9D426",
"q. c #F3DB23",
"w. c #F8D72C",
"e. c #E0C43D",
"r. c #E9D03F",
"t. c #FDD73D",
"y. c #FFDC3F",
"u. c #F5D738",
"i. c #EACF26",
"p. c #FFE72D",
"a. c #EBE73A",
"s. c #FFE83B",
"d. c #FFF939",
"f. c #988554",
"g. c #8F975E",
"h. c #B99A46",
"j. c #A79045",
"k. c #ACAA44",
"l. c #BBAD47",
"z. c #B0A653",
"x. c #B3B94C",
"c. c #BEB260",
"v. c #B7A96A",
"b. c #938D77",
"n. c #D7BB4A",
"m. c #DFBF52",
"M. c #C5B752",
"N. c #CDAF67",
"B. c #BEC075",
"V. c #DCC344",
"C. c #D8C348",
"Z. c #DECB52",
"A. c #D2D95E",
"S. c #E1CA48",
"D. c #FBCE41",
"F. c #FFDD4C",
"G. c #F4DC49",
"H. c #E8D856",
"J. c #FEDB55",
"K. c #E9D149",
"L. c #DCE450",
"P. c #E7EC47",
"I. c #F9E64B",
"U. c #FCFA4A",
"Y. c #FCE95D",
"T. c #EDF65F",
"R. c #FFF155",
"E. c #FFFC51",
"W. c #FEF45B",
"Q. c #F5F758",
"!. c #E9ED50",
"~. c #D1D577",
"^. c #E2C66B",
"/. c #FFDF70",
"(. c #EED96B",
"). c #DAE366",
"_. c #FFEA6F",
"`. c #FDFE6E",
"'. c #F6F96F",
"]. c #F7EA76",
"[. c #FDFD73",
"{. c #FFFF7E",
"}. c #F9F977",
"|. c #EDEA77",
" X c #A59B8B",
".X c #A79D97",
"XX c #AAA59B",
"oX c #BCAC9F",
"OX c #B3B399",
"+X c #A99BAA",
"@X c #ABA9A6",
"#X c #B1A6A8",
"$X c #AFB0A8",
"%X c #BAB5A7",
"&X c #B9BAB6",
"*X c #C2BFBA",
"=X c #C6C282",
"-X c #E3C886",
";X c #F0DF85",
":X c #FFFE85",
">X c #FDFD8B",
",X c #FCED91",
"<X c #FEFD93",
"1X c #FCFD99",
"2X c #F3ED8D",
"3X c #CCC9B3",
"4X c #FFFFAA",
"5X c #FFFFA2",
"6X c #F3ECA6",
"7X c #DFD4C0",
"8X c #EDF2DE",
"9X c #E3EAD8",
"0X c #EFECE6",
"qX c #EBEDE9",
"wX c #E9E9E7",
"eX c #F3EDEC",
"rX c #EBF6E6",
"tX c #EEF3EB",
"yX c #ECFCED",
"uX c #E4F8E7",
"iX c #F4F5ED",
"pX c #F2FCEC",
"aX c #FCFFED",
"sX c #F9F7E6",
"dX c #EDEBF5",
"fX c #FDEEFF",
"gX c #F7EBF5",
"hX c #EBF4FA",
"jX c #F5F5F4",
"kX c #FAF5F4",
"lX c #F5F9F4",
"zX c #FDFDF3",
"xX c #F4F4FC",
"cX c #FDF3FC",
"vX c #F5FBFC",
"bX c #FEFCFD",
/* pixels */
"zXrXpXuXvXhXvXiXaXaXbXbXzXsXaXzXzXzXzXzXuXzXlXyXlXjXbXgXgXbX",
"zX9XaXpXhXxXxXzX%X. 7 : o y & o & ; ; ; * @XyXqXlXxXjXjXkXjX",
"8XaX8XrXbXvXbXzX3X  . +   . &   . .   o   $XbXbXkXcXiXzXbXjX",
"zXkX0XbXdXlX&X.Xb.C C f n n g n v g g n m A $X@XbXbX0XeXgX0X",
"fXfXcXgXcXbXO   f 6X4X|.`.`.T.`.[.'.{.>X1Xv . . bXfXfXkXzXiX",
"fXcXfXwXbXbX; X r 5X].T.U.P.`.[.Q.E.U.a.[.l . $ cXgXbXbX0XsX",
"gXeXcX*X  - x.).A.:X:XH.P.! $ o T 0.-.-.d.U R f.1 7 +XcXkXzX",
"sXsXaXOX  X A.'.}.<X1X).].k.+ + l.!.0.-.....| E + + +XcXzXzX",
"bX$X3Xg.r r ~.1X>X<X,Xz.v.Z + . S h.P s.+./ i.P p 8 b.3X*XiX",
"vX* X n 1X1X5X,X|.l.,X5 . . $ + @ < 3 F.6.O.+.u.| ;Xs . . bX",
"bX, o m >XL.'.:X<Xn./.4 1 +   . @ < 3 D.3.5.` 7.K H.h   o bX",
"bX> X r :XQ.I.P.K.e.].i + 7 B.k.Q { { D.[ :.:.o.^ ! c . o bX",
"lX* X n >XR.8.<.,.<.Y.p 2 e }.P.a.p.w.3.' ' ;.o.^ V.l o o bX",
"aX&   b ].R.q.6.:.%.s.N 2 k Q T ..4.,.3.2.&.:.&.~ V.k o o xX",
"jX0   l [.U.7.@.' 2.2.w.W.M.o o T 7.1.[ $.$.#.` ^ C.b . O bX",
"vX0 X j {.I.,.2.$.*.;.>.7.L # . Q W.F.9.9.' &.&.^ n.d . : bX",
"yX9 X v >XY.0.%.#.#.;.;.>.X.L E c q M J.[ $.#.' ^ e.d @ . bX",
"lX*   j >XY.i.7.:.@.@.6.u.J.H.1Xg o 4 /.9.2.#.@./ n.d + % bX",
"bX, . h `.U.7.O.%.+.t. . .M.z.=Xe . i /.] 2.#.*.~ n.k + , bX",
"cX, 1 M `.s.>.=.:.w.J.i + . O   # + 4 _.9.%.o.3.( ^.s .   bX",
"fX% . x ].R.p.O.+.<.F.w + +   + + + 3 J.w.q.3.t.n.-XC     xX",
"cX#XoXf.B B ) q.7.4.u.P j.D . . D h.J t.,.` _ Y 4 s G @X&XbX",
"xXcXbXXX. # C.E.7.=.O.w._.N.@ @ h._.u.1.,./ } h.$ . XXbXbX9X",
"hXhXhX&X. o c.Z.8.q.7./ F.W < @ P u...] s.U E j.+   XXcXtXpX",
"uXuXvXvXbXbX$ + 4 m.J { ( ( ( e.Y ) ~ U | p 1 + zXbXcXlXjXyX",
"yXuXyXuXhXjX7 . p -X^.n.n.K.8.S.C.Z.n.n.(.a + $ cXbXkXlXyXjX",
"lXhXvXdXjXbX X XG s V x a B z a M d d x a F  X.XbXcXkXlXvXjX",
"xXcXbXyXtXzXsXaX7X+ . + + .   . + @ + . . *XbXzXkXlXlXxXxXxX",
"cXgXkXeXiXiXaXsX@X. # , .   u O % . : , O $XbXjXlXjXxXxXcXxX",
"kXgXgXkXbXkXbX0XzXbXzXjXbXvXvXbXcXbXcXdXbXbXwXbXiXjXxXxXxXxX"
};
